<?xml version="1.0" standalone="no"?>
<!DOCTYPE svg PUBLIC "-//W3C//DTD SVG 20010904//EN"
 "http://www.w3.org/TR/2001/REC-SVG-20010904/DTD/svg10.dtd">
<svg version="1.0" xmlns="http://www.w3.org/2000/svg"
 width="1707.000000pt" height="1707.000000pt" viewBox="0 0 1707.000000 1707.000000"
 preserveAspectRatio="xMidYMid meet">
<metadata>
Created by potrace 1.11, written by Peter Selinger 2001-2013
</metadata>
<g transform="translate(0.000000,1707.000000) scale(0.100000,-0.100000)"
fill="#000000" stroke="none">
<path d="M11375 14063 c-11 -2 -103 -20 -205 -39 -378 -71 -832 -197 -1027
-285 -160 -72 -289 -165 -496 -361 -311 -293 -571 -596 -1342 -1563 -1280
-1605 -2118 -2724 -2830 -3782 l-190 -282 -540 6 c-578 6 -643 3 -870 -42
-535 -107 -912 -385 -1125 -829 -55 -114 -110 -266 -110 -301 0 -24 1 -24 38
-11 21 8 62 26 90 40 29 15 52 21 52 15 0 -6 -13 -47 -29 -92 -34 -98 -44
-147 -31 -147 6 0 58 22 118 48 322 146 637 222 1102 267 176 17 660 33 660
21 0 -3 -71 -127 -158 -274 -495 -836 -770 -1395 -961 -1956 -120 -350 -175
-627 -175 -881 0 -196 9 -227 120 -404 95 -152 126 -183 223 -230 74 -35 80
-36 212 -39 224 -6 322 8 535 79 345 113 784 282 784 301 0 6 -17 38 -39 72
-35 56 -54 97 -113 241 -16 38 -22 81 -26 177 -16 422 153 1044 485 1778 89
195 423 861 488 973 l46 78 487 -8 c792 -13 2333 -10 2592 5 254 15 538 35
778 57 89 8 191 15 226 15 l65 0 10 -52 c6 -29 20 -107 31 -173 33 -184 156
-789 202 -985 177 -766 413 -1415 668 -1835 267 -441 479 -648 730 -711 99
-26 252 -21 373 10 187 48 421 183 652 376 123 103 265 237 265 250 0 4 -29
32 -65 60 -62 50 -77 72 -55 85 6 3 10 17 10 31 0 18 -16 36 -62 72 -85 64
-206 180 -288 277 -281 332 -475 826 -674 1720 -276 1239 -470 2553 -565 3825
-55 726 -56 767 -56 1700 0 643 4 929 13 1045 34 407 74 769 148 1317 21 148
17 158 -52 158 l-44 0 6 95 7 95 -34 -1 c-19 -1 -43 -3 -54 -6z m-1621 -2520
c16 -947 77 -1770 236 -3153 32 -283 62 -545 65 -581 l7 -67 -38 -6 c-200 -30
-631 -60 -1119 -77 -475 -17 -2198 1 -2220 23 -13 13 267 520 477 863 461 751
974 1444 2011 2717 194 238 399 490 456 561 56 70 106 127 110 127 5 0 11
-183 15 -407z"/>
</g>
</svg>
